# xmcd CD database file
#
# Track frame offsets:
#	183
#	22615
#	51785
#	108728
#	156713
#	202898
#
# Disc length: 3371 seconds
#
# Revision: 0
# Processed by: cddbd v1.5.2PL0 Copyright (c) Steve Scherf et al.
# Submitted via: CDex 1.51
#
DISCID=480d2906
DTITLE=Indrees Sulieman - Birds's Grass
DYEAR=1992
DGENRE=Jazz
TTITLE0=Wee
TTITLE1=The Summer Knows
TTITLE2=Billie's Bounce
TTITLE3=Loneliness is a Mutual Feeling take1
TTITLE4=All Your Words
TTITLE5=Loneliness is a Mutual Feeling
EXTD=YEAR: 1992
EXTT0=
EXTT1=
EXTT2=
EXTT3=
EXTT4=
EXTT5=
PLAYORDER=
